Coordinates
version=1
nRows=6
nColumns=63
inDegrees=yes

Units are S.I. units (second, meters, Newtons, ...)
If the header above contains a line with 'inDegrees', this indicates whether rotational values are in degrees (yes) or radians (no).

endheader
time	pelvis_tilt	pelvis_list	pelvis_rotation	pelvis_tx	pelvis_ty	pelvis_tz	hip_flexion_r	hip_adduction_r	hip_rotation_r	knee_angle_r	knee_angle_r_beta	ankle_angle_r	subtalar_angle_r	mtp_angle_r	hip_flexion_l	hip_adduction_l	hip_rotation_l	knee_angle_l	knee_angle_l_beta	ankle_angle_l	subtalar_angle_l	mtp_angle_l	L5_S1_Flex_Ext	L5_S1_Lat_Bending	L5_S1_axial_rotation	L4_L5_Flex_Ext	L4_L5_Lat_Bending	L4_L5_axial_rotation	L3_L4_Flex_Ext	L3_L4_Lat_Bending	L3_L4_axial_rotation	L2_L3_Flex_Ext	L2_L3_Lat_Bending	L2_L3_axial_rotation	L1_L2_Flex_Ext	L1_L2_Lat_Bending	L1_L2_axial_rotation	L1_T12_Flex_Ext	L1_T12_Lat_Bending	L1_T12_axial_rotation	Abs_r3	Abs_r2	Abs_r1	Abs_t1	Abs_t2	neck_flexion	neck_bending	neck_rotation	arm_flex_r	arm_add_r	arm_rot_r	elbow_flex_r	pro_sup_r	wrist_flex_r	wrist_dev_r	arm_flex_l	arm_add_l	arm_rot_l	elbow_flex_l	pro_sup_l	wrist_flex_l	wrist_dev_l
      0.00000000	     27.69090217	      2.27510377	    -98.74870020	      0.45687996	      0.86826754	      0.05673455	     29.66665644	     -0.39312730	     -4.61630755	     46.13459067	      0.80520051	      2.51300703	    -18.76583523	      0.00000000	     26.82947687	      2.72297081	      9.98423462	     42.68516447	      0.74499666	     17.63227748	     16.86193781	      0.00000000	     -0.27977665	     -1.10554358	      0.45197827	     -0.51957322	     -1.47037297	      0.48022692	     -0.45964506	     -2.68801867	      0.48022692	     -0.31975673	     -2.68801867	      0.39548099	     -0.25980060	     -2.25442448	      0.36723235	     -0.15986438	     -1.71248701	      0.33898370	     -1.99841663	    -12.50613013	      2.51376756	      0.00000000	      0.00000000	      0.00000000	      0.00000000	      0.00000001	     14.50636875	      3.21368821	     36.54677065	      3.78450873	     53.73283359	      0.00000000	      4.62125027	      7.90591541	    -11.91127944	     48.90840106	     20.61524315	     49.44439226	      0.00000000	      4.62125027
      0.01666670	     26.35250160	      3.92272152	    -96.62547617	      0.45687148	      0.87326261	      0.05840710	     30.37517856	     -0.64381664	    -10.23399158	     43.32757409	      0.75620882	      4.19799512	    -19.62343463	      0.00000000	     26.70946955	      2.19543069	     12.40103193	     39.15895661	      0.68345272	     14.07582850	     18.73814491	      0.00000000	     -0.03044394	     -0.98021801	      0.44689239	     -0.05653744	     -1.30368996	      0.47482316	     -0.05001634	     -2.38330208	      0.47482316	     -0.03479438	     -2.38330208	      0.39103084	     -0.02827024	     -1.99886057	      0.36310007	     -0.01739567	     -1.51835770	      0.33516929	     -0.21745800	    -11.08842221	      2.48548140	      0.00000000	      0.00000000	      0.00000000	      0.00000000	      0.00000001	     13.61637699	      1.39901992	     45.73179123	      3.60458574	     55.28329918	      0.00000000	      4.68141985	      9.79894422	    -11.64572856	     56.98505601	     17.82183399	     51.42242960	      0.00000000	      4.68141985
      0.03333330	     26.40833541	      4.75289217	    -96.45862286	      0.45625127	      0.87466812	      0.05983121	     31.20488673	     -0.82524544	    -11.93933553	     43.02577775	      0.75094149	      5.73569106	    -19.63652828	      0.00000000	     26.99525197	      2.17070319	     12.71406751	     38.22285663	      0.66711470	     11.93627624	     18.98924962	      0.00000000	      0.04543993	     -0.92195907	      0.44262499	      0.08438649	     -1.22620556	      0.47028905	      0.07465326	     -2.24165127	      0.47028905	      0.05193329	     -2.24165127	      0.38729687	      0.04219552	     -1.88005893	      0.35963280	      0.02596437	     -1.42811459	      0.33196874	      0.32457286	    -10.42938534	      2.46174741	      0.00000000	      0.00000000	      0.00000000	      0.00000000	      0.00000000	     13.87059619	      0.67639689	     64.57290468	      2.95868756	     46.78851974	      0.00000000	      4.91037775	     10.29969245	    -12.02922835	     65.48598911	     18.05499774	     43.06731631	      0.00000000	      4.91037775
      0.05000000	     26.47563898	      5.13010613	    -95.98048125	      0.45618288	      0.87597273	      0.05964574	     30.99535465	     -0.97678617	    -12.75936580	     42.19680196	      0.73647313	      5.58733962	    -19.66952216	      0.00000000	     27.29317625	      2.06539617	     12.80241777	     37.89579285	      0.66140636	     10.73823695	     19.22336084	      0.00000000	      0.04468522	     -0.91305107	      0.48813173	      0.08298493	     -1.21435792	      0.51863996	      0.07341335	     -2.21999237	      0.51863996	      0.05107074	     -2.21999237	      0.42711526	      0.04149470	     -1.86189374	      0.39660703	      0.02553314	     -1.41431611	      0.36609880	      0.31918207	    -10.32861630	      2.71484225	      0.00000000	      0.00000000	      0.00000000	      0.00000000	      0.00000000	     13.79408589	      0.42604701	     65.05366556	      3.04952380	     46.95298707	      0.00000000	      4.91118474	     10.73197784	    -11.94125137	     65.72146042	     18.10946789	     43.06797360	      0.00000000	      4.91118474
      0.06666670	     26.27483859	      5.52855249	    -95.60440770	      0.45646764	      0.87746623	      0.05945456	     31.11728860	     -1.00834041	    -13.43298948	     41.80206767	      0.72958372	      5.86744471	    -19.68312665	      0.00000000	     28.08171110	      1.91523131	     13.39417440	     38.38533136	      0.66995042	     10.67320371	     19.29905447	      0.00000000	      0.02540077	     -0.87322391	      0.55878709	      0.04717176	     -1.16138780	      0.59371129	      0.04173092	     -2.12315662	      0.59371129	      0.02903054	     -2.12315662	      0.48893871	      0.02358715	     -1.78067820	      0.45401451	      0.01451400	     -1.35262384	      0.41909032	      0.18143514	     -9.87808352	      3.10780618	      0.00000000	      0.00000000	      0.00000000	      0.00000000	      0.00000000	     14.08805340	     -0.35361564	     78.59279214	      3.13237533	     50.93100113	      0.00000000	      4.92486246	     12.15989435	    -11.98422362	     75.11278090	     18.18337404	     43.25428459	      0.00000000	      4.92486246
      0.08333330	     26.53661517	      5.77398767	    -95.46955166	      0.45651607	      0.87815665	      0.05908803	     31.25969041	     -1.42898811	    -13.37621890	     41.67118903	      0.72729945	      5.95444046	    -19.69428332	      0.00000000	     28.35857222	      2.27975035	     13.57076022	     38.36832940	      0.66965368	     10.57373594	     19.29664302	      0.00000000	      0.01837342	     -0.91442303	      0.64282339	      0.03412127	     -1.21618264	      0.68299985	      0.03018569	     -2.22332817	      0.68299985	      0.02099898	     -2.22332817	      0.56247047	      0.01706155	     -1.86469145	      0.52229400	      0.01049857	     -1.41644128	      0.48211754	      0.13123948	    -10.34413626	      3.57519085	      0.00000000	      0.00000000	      0.00000000	      0.00000000	      0.00000000	     14.28275773	     -0.43514777	     88.19168164	      2.84220722	     52.40715339	      0.00000000	      4.93820389	     13.10211408	    -12.37610193	     80.55895981	     18.96871406	     41.33199810	      0.00000000	      4.93820389
